<?xml version="1.0" encoding="utf-8"?>
<!-- Generator: Adobe Illustrator 24.2.1, SVG Export Plug-In . SVG Version: 6.00 Build 0)  -->
<svg version="1.1" id="Layer_1" xmlns="http://www.w3.org/2000/svg" xmlns:xlink="http://www.w3.org/1999/xlink" x="0px" y="0px"
	 viewBox="0 0 383.32 115.06" style="enable-background:new 0 0 383.32 115.06;" xml:space="preserve">
<style type="text/css">
	.st0{fill:#A6A6A6;}
	.st1{fill:#FFFFFF;stroke:#FFFFFF;stroke-width:0.2;stroke-miterlimit:10;}
	.st2{fill:#FFFFFF;}
	.st3{fill:url(#XMLID_40_);}
	.st4{fill:url(#XMLID_41_);}
	.st5{fill:url(#XMLID_43_);}
	.st6{fill:url(#XMLID_44_);}
	.st7{opacity:0.2;enable-background:new    ;}
	.st8{opacity:0.12;enable-background:new    ;}
	.st9{opacity:0.25;fill:#FFFFFF;enable-background:new    ;}
</style>
<g id="XMLID_19_">
	<g id="XMLID_37_">
		<path d="M367.39,113.76H15.93c-7.73,0-14.06-6.33-14.06-14.06V15.36C1.87,7.62,8.2,1.3,15.93,1.3h351.46
			c7.73,0,14.06,6.33,14.06,14.06v84.35C381.45,107.44,375.12,113.76,367.39,113.76z"/>
	</g>
	<g id="XMLID_92_">
		<g id="XMLID_93_">
			<path id="XMLID_94_" class="st0" d="M367.39,3.55c6.51,0,11.81,5.3,11.81,11.81v84.35c0,6.51-5.3,11.81-11.81,11.81H15.93
				c-6.51,0-11.81-5.3-11.81-11.81V15.36c0-6.51,5.3-11.81,11.81-11.81H367.39 M367.39,1.3H15.93C8.2,1.3,1.87,7.63,1.87,15.36
				v84.35c0,7.73,6.33,14.06,14.06,14.06h351.46c7.73,0,14.06-6.33,14.06-14.06V15.36C381.45,7.63,375.12,1.3,367.39,1.3L367.39,1.3
				z"/>
		</g>
	</g>
	<g id="XMLID_76_">
		<path id="XMLID_90_" class="st1" d="M135.2,30.1c0,2.36-0.7,4.23-2.1,5.63c-1.59,1.66-3.65,2.5-6.2,2.5
			c-2.44,0-4.51-0.84-6.21-2.53c-1.7-1.69-2.56-3.78-2.56-6.28c0-2.5,0.85-4.59,2.56-6.28c1.7-1.69,3.77-2.53,6.21-2.53
			c1.21,0,2.36,0.24,3.46,0.71c1.1,0.47,1.98,1.1,2.64,1.88l-1.48,1.48c-1.12-1.33-2.66-2-4.62-2c-1.78,0-3.31,0.62-4.61,1.87
			c-1.3,1.25-1.94,2.87-1.94,4.87s0.65,3.62,1.94,4.87c1.3,1.25,2.83,1.87,4.61,1.87c1.88,0,3.45-0.63,4.71-1.88
			c0.82-0.82,1.29-1.96,1.41-3.42h-6.13v-2.03h8.17C135.16,29.27,135.2,29.69,135.2,30.1z"/>
		<path id="XMLID_88_" class="st1" d="M148.16,23.05h-7.68v5.35h6.93v2.03h-6.93v5.35h7.68v2.07h-9.85V20.98h9.85V23.05z"/>
		<path id="XMLID_86_" class="st1" d="M157.3,37.85h-2.17v-14.8h-4.71v-2.07h11.59v2.07h-4.71V37.85z"/>
		<path id="XMLID_84_" class="st1" d="M170.4,37.85V20.98h2.17v16.87H170.4z"/>
		<path id="XMLID_82_" class="st1" d="M182.18,37.85h-2.17v-14.8h-4.71v-2.07h11.59v2.07h-4.71V37.85z"/>
		<path id="XMLID_79_" class="st1" d="M208.84,35.67c-1.66,1.71-3.72,2.56-6.19,2.56c-2.47,0-4.53-0.85-6.18-2.56
			c-1.66-1.7-2.48-3.79-2.48-6.25s0.83-4.55,2.48-6.25c1.66-1.71,3.72-2.56,6.18-2.56c2.45,0,4.51,0.86,6.18,2.57
			c1.66,1.71,2.5,3.79,2.5,6.24C211.32,31.88,210.49,33.97,208.84,35.67z M198.07,34.26c1.25,1.26,2.78,1.9,4.58,1.9
			c1.81,0,3.34-0.63,4.58-1.9c1.25-1.26,1.88-2.88,1.88-4.84s-0.63-3.58-1.88-4.84c-1.25-1.26-2.78-1.9-4.58-1.9
			c-1.81,0-3.33,0.63-4.58,1.9c-1.25,1.26-1.87,2.88-1.87,4.84S196.82,32.99,198.07,34.26z"/>
		<path id="XMLID_77_" class="st1" d="M214.36,37.85V20.98H217l8.2,13.12h0.09l-0.09-3.25v-9.87h2.17v16.87h-2.26l-8.58-13.76h-0.09
			l0.09,3.25v10.51H214.36z"/>
	</g>
	<path id="XMLID_52_" class="st2" d="M193.45,62.46c-6.61,0-12,5.03-12,11.96c0,6.89,5.39,11.96,12,11.96c6.61,0,12-5.07,12-11.96
		C205.45,67.48,200.06,62.46,193.45,62.46z M193.45,81.66c-3.62,0-6.75-2.99-6.75-7.25c0-4.3,3.13-7.25,6.75-7.25
		s6.75,2.94,6.75,7.25C200.2,78.67,197.07,81.66,193.45,81.66z M167.26,62.46c-6.61,0-12,5.03-12,11.96c0,6.89,5.39,11.96,12,11.96
		c6.61,0,12-5.07,12-11.96C179.26,67.48,173.87,62.46,167.26,62.46z M167.26,81.66c-3.62,0-6.75-2.99-6.75-7.25
		c0-4.3,3.13-7.25,6.75-7.25c3.62,0,6.75,2.94,6.75,7.25C174.01,78.67,170.88,81.66,167.26,81.66z M136.11,66.13v5.07h12.14
		c-0.36,2.85-1.31,4.94-2.76,6.39c-1.77,1.77-4.53,3.71-9.38,3.71c-7.47,0-13.32-6.02-13.32-13.5s5.84-13.5,13.32-13.5
		c4.03,0,6.98,1.59,9.15,3.62l3.58-3.58c-3.03-2.9-7.07-5.12-12.73-5.12c-10.24,0-18.84,8.33-18.84,18.57
		c0,10.24,8.61,18.57,18.84,18.57c5.53,0,9.69-1.81,12.95-5.21c3.35-3.35,4.39-8.06,4.39-11.87c0-1.18-0.09-2.26-0.27-3.17H136.11z
		 M263.5,70.07c-1-2.67-4.03-7.61-10.24-7.61c-6.16,0-11.28,4.85-11.28,11.96c0,6.7,5.07,11.96,11.87,11.96
		c5.48,0,8.65-3.35,9.97-5.3l-4.08-2.72c-1.36,1.99-3.22,3.31-5.89,3.31c-2.67,0-4.58-1.22-5.8-3.62l15.99-6.61L263.5,70.07z
		 M247.2,74.05c-0.14-4.62,3.58-6.98,6.25-6.98c2.08,0,3.85,1.04,4.44,2.54L247.2,74.05z M234.2,85.65h5.25V50.5h-5.25V85.65z
		 M225.59,65.13h-0.18c-1.18-1.4-3.44-2.67-6.3-2.67c-5.98,0-11.46,5.25-11.46,12c0,6.7,5.48,11.91,11.46,11.91
		c2.85,0,5.12-1.27,6.3-2.72h0.18v1.72c0,4.58-2.45,7.02-6.39,7.02c-3.22,0-5.21-2.31-6.02-4.26l-4.58,1.9
		c1.31,3.17,4.8,7.07,10.6,7.07c6.16,0,11.37-3.62,11.37-12.46V63.18h-4.98V65.13z M219.56,81.66c-3.62,0-6.66-3.03-6.66-7.2
		c0-4.21,3.04-7.29,6.66-7.29c3.58,0,6.39,3.08,6.39,7.29C225.95,78.63,223.14,81.66,219.56,81.66z M288.12,50.5h-12.57v35.15h5.25
		V72.33h7.33c5.82,0,11.53-4.21,11.53-10.92S293.93,50.5,288.12,50.5z M288.25,67.44h-7.46V55.39h7.46c3.92,0,6.15,3.25,6.15,6.02
		C294.4,64.14,292.17,67.44,288.25,67.44z M320.67,62.39c-3.8,0-7.73,1.67-9.36,5.38l4.66,1.94c0.99-1.94,2.85-2.58,4.79-2.58
		c2.71,0,5.47,1.63,5.52,4.52v0.36c-0.95-0.54-2.98-1.36-5.47-1.36c-5.02,0-10.13,2.76-10.13,7.91c0,4.7,4.11,7.73,8.73,7.73
		c3.53,0,5.47-1.58,6.69-3.44h0.18v2.71h5.06V72.11C331.35,65.87,326.69,62.39,320.67,62.39z M320.04,81.66
		c-1.72,0-4.12-0.86-4.12-2.98c0-2.71,2.98-3.75,5.56-3.75c2.31,0,3.39,0.5,4.79,1.18C325.87,79.35,323.07,81.66,320.04,81.66z
		 M349.8,63.16l-6.01,15.24h-0.18l-6.24-15.24h-5.65l9.36,21.3l-5.34,11.85h5.47l14.43-33.15H349.8z M302.54,85.65h5.25V50.5h-5.25
		V85.65z"/>
	<g id="XMLID_39_">
		
			<linearGradient id="XMLID_40_" gradientUnits="userSpaceOnUse" x1="63.166" y1="90.638" x2="15.9797" y2="43.4517" gradientTransform="matrix(1 0 0 -1 0 116.4255)">
			<stop  offset="0" style="stop-color:#00A0FF"/>
			<stop  offset="6.574450e-03" style="stop-color:#00A1FF"/>
			<stop  offset="0.2601" style="stop-color:#00BEFF"/>
			<stop  offset="0.5122" style="stop-color:#00D2FF"/>
			<stop  offset="0.7604" style="stop-color:#00DFFF"/>
			<stop  offset="1" style="stop-color:#00E3FF"/>
		</linearGradient>
		<path id="XMLID_8_" class="st3" d="M31.21,22.49c-0.82,0.87-1.3,2.21-1.3,3.95v62.18c0,1.74,0.48,3.08,1.3,3.95l0.21,0.2
			l34.83-34.83v-0.41v-0.41L31.42,22.29L31.21,22.49z"/>
		
			<linearGradient id="XMLID_41_" gradientUnits="userSpaceOnUse" x1="97.0033" y1="58.8895" x2="28.97" y2="58.8895" gradientTransform="matrix(1 0 0 -1 0 116.4255)">
			<stop  offset="0" style="stop-color:#FFE000"/>
			<stop  offset="0.4087" style="stop-color:#FFBD00"/>
			<stop  offset="0.7754" style="stop-color:#FFA500"/>
			<stop  offset="1" style="stop-color:#FF9C00"/>
		</linearGradient>
		<path id="XMLID_7_" class="st4" d="M77.87,69.56L66.26,57.95v-0.41v-0.41l11.61-11.61l0.26,0.15l13.76,7.82
			c3.93,2.23,3.93,5.89,0,8.12l-13.76,7.82L77.87,69.56z"/>
		
			<linearGradient id="XMLID_43_" gradientUnits="userSpaceOnUse" x1="71.6775" y1="52.4378" x2="7.6891" y2="-11.5506" gradientTransform="matrix(1 0 0 -1 0 116.4255)">
			<stop  offset="0" style="stop-color:#FF3A44"/>
			<stop  offset="1" style="stop-color:#C31162"/>
		</linearGradient>
		<path id="XMLID_6_" class="st5" d="M78.13,69.41L66.26,57.53L31.21,92.58c1.3,1.37,3.43,1.54,5.84,0.17L78.13,69.41"/>
		
			<linearGradient id="XMLID_44_" gradientUnits="userSpaceOnUse" x1="22.3903" y1="114.6313" x2="50.9638" y2="86.0578" gradientTransform="matrix(1 0 0 -1 0 116.4255)">
			<stop  offset="0" style="stop-color:#32A071"/>
			<stop  offset="0.0685" style="stop-color:#2DA771"/>
			<stop  offset="0.4762" style="stop-color:#15CF74"/>
			<stop  offset="0.8009" style="stop-color:#06E775"/>
			<stop  offset="1" style="stop-color:#00F076"/>
		</linearGradient>
		<path id="XMLID_5_" class="st6" d="M78.13,45.66L37.06,22.32c-2.41-1.37-4.55-1.2-5.84,0.17l35.04,35.04L78.13,45.66z"/>
		<g id="XMLID_42_">
			<path id="XMLID_4_" class="st7" d="M77.87,69.15L37.06,92.34c-2.28,1.3-4.32,1.21-5.63,0.03l0,0l-0.21,0.21l0,0l0.21,0.2l0,0
				c1.31,1.18,3.35,1.27,5.63-0.03l41.07-23.34L77.87,69.15z"/>
			<path id="XMLID_3_" class="st8" d="M31.21,92.17c-0.82-0.87-1.3-2.21-1.3-3.95v0.41c0,1.74,0.48,3.08,1.3,3.95l0.21-0.21
				L31.21,92.17z"/>
		</g>
		<path id="XMLID_2_" class="st8" d="M91.89,61.18l-14.02,7.97l0.26,0.26l13.76-7.82c1.96-1.12,2.95-2.59,2.95-4.06l0,0
			C94.67,58.87,93.67,60.17,91.89,61.18z"/>
		<path id="XMLID_1_" class="st9" d="M37.06,22.73l54.83,31.15c1.78,1.01,2.78,2.32,2.95,3.65l0,0c0-1.47-0.98-2.94-2.95-4.06
			L37.06,22.32c-3.93-2.23-7.14-0.38-7.14,4.12v0.41C29.91,22.35,33.13,20.5,37.06,22.73z"/>
	</g>
</g>
</svg>
