<?xml version="1.0" encoding="utf-8"?>
<!-- Generator: Adobe Illustrator 26.0.3, SVG Export Plug-In . SVG Version: 6.00 Build 0)  -->
<svg version="1.1" id="Layer_1" xmlns="http://www.w3.org/2000/svg" xmlns:xlink="http://www.w3.org/1999/xlink" x="0px" y="0px"
	 viewBox="0 0 1080 1080" style="enable-background:new 0 0 1080 1080;" xml:space="preserve">
<style type="text/css">
	.st0{fill:#DC7C12;}
	.st1{fill:#010101;}
	.st2{fill:#030303;}
	.st3{fill:#020202;}
	.st4{fill:#040404;}
	.st5{fill:#080808;}
</style>
<g>
	<path class="st0" d="M705.9,328c-2,0.8-3.7,0.9-4.2,1.7c-2.4,4.6-4.7,9.2-6.8,14c-14.8,35.5-13.3,73.3-15.1,110.4
		c-2.6,53.1-1.5,106.4-8.3,159.2c-7.6,59.2-59.6,95.5-118.3,83.6c-23.8-4.8-40.1-18.4-45.3-43.4c-4.9-23.4-1.4-45.7,8.5-67.1
		c7.4-16.2,7.3-18.1-6.7-29.7c-11.5-9.6-23.4-18.7-38.4-30.7c13.4-6.2,23.5-12.2,32.4-19.8c20.8-17.9,19-51.2-4.2-66.1
		c-24.8-15.9-50.9-15.2-77-3.1c-7.6,3.5-12.6,9.1-12.6,18.3c0.1,44.7,0,89.5,0,134.2c0,8.2,3.3,15.4,11.5,15.7
		c8.3,0.3,12.1-6.8,12.1-15c0.1-11.2-0.2-22.4,0.2-33.6c0.2-6.8-2.8-15.5,5.8-19.2c9.5-4.1,14.2,4.3,19.4,9.7
		c13.8,14,27.3,28.4,41.2,43c-2.1,7.7-4.3,15.3-6.2,22.8c-5.9,23-9.7,46.3-8.4,70.2c1.9,35.9,22.8,60.4,57.8,67.1
		c26.5,5.1,50.8-1.4,73-15.9c23.4-15.2,38.7-37.2,50.6-61.7c21.5-44.5,30.6-91.8,31.7-141c1.5-60.4,2.6-120.8,7.3-181.1
		C706.7,343.3,710.6,335.4,705.9,328z M445.5,509.5c0-14,0.4-26.2-0.1-38.4c-0.4-11.1,4.2-17.3,15.2-18.7
		c10.7-1.4,18.3,4.1,21.4,15.3C487.1,486.2,472,505.2,445.5,509.5z"/>
	<path class="st1" d="M905.2,470.8c5.7,8.7,11.2,16.8,16.2,25.1c7.4,12.2,1.9,22.7-5.4,32.5c-8.8,11.9-16.9,16.2-28.4,10.7
		c-17.8-8.5-29.6-2.5-41,10.9c-9.3,11-19.6,21.2-29.9,31.3c-4.1,4-6.2,8.4-6.8,13.7c-1,8.6-4.2,16.5-7.2,24.5
		c-7.1,18.8-18.8,32.8-38.9,38.4c-14.7,4.1-28.1,13.3-49.3,12.3c29.2-24.9,62.3-39.9,80.4-71.9c-7.8-3.3-13.3,0.4-19.1-0.1
		c-19.5-1.4-28.7-13.4-22.7-32c3.4-10.5,8.6-20.5,13.3-30.6c4.4-9.3,11.7-13.4,22.2-12.8c11.2,0.5,15.7,8.1,19.7,16.7
		c2.2,4.7,0.7,10.5,6.6,16.6C852.5,536.8,870,495.5,905.2,470.8z"/>
	<path class="st2" d="M351.3,532.8c-15,0-28.6,0-43.7,0c-3.1,9.6-0.9,20-1.6,30.2c-0.2,2.6,0.1,5.3-0.1,7.9
		c-0.7,8.7-1.1,18.9-12.5,18.8c-10.8-0.1-12.8-9.2-12.6-18.6c0.6-29.5,1.1-59.1,1.7-88.6c0.2-9.8,0.9-19.7,0.9-29.5
		c0-8.3,3.2-15,11.8-15c8.6-0.1,12.3,6.8,12.4,14.8c0.2,19,0.1,38,0.1,58.2c14,2,27.9,3.4,45.5,1.9c0-16.4-0.1-32.7,0-48.9
		c0-5.9-0.4-11.7,1.5-17.6c1.7-5.3,5.5-7.8,10-8c5.5-0.2,10.3,2.6,11.4,8.7c0.7,3.8,0.9,7.8,0.9,11.7c-0.4,41.4-0.9,82.7-1.4,124.1
		c0,2-0.3,3.9-0.4,5.9c-0.5,7.7-4.7,12.9-12.2,12.7c-7.4-0.2-11.5-5.9-11.7-13.3c-0.3-13.1-0.1-26.3-0.1-39.4
		C351.3,544.4,351.3,539.8,351.3,532.8z"/>
	<path class="st3" d="M183.1,565.7c14.1-0.9,28.7-3.9,43-8.4c7.8-2.5,14.9-2.4,18,6.2c3.5,9.6-2.2,14.4-11,17.2
		c-18.2,5.8-37.1,8.5-56,9.5c-15.8,0.8-23-7.3-21.9-23.1c2.5-34,3.4-68.1,3.3-102.2c0-3.3,0-6.7,0.9-9.7c1.9-6.4,6.4-10,13.2-9.3
		c5.8,0.6,9.9,4.1,10.2,10.1c0.5,10.5,0.3,20.9,0.3,31.4C183.1,512.7,183.1,538.2,183.1,565.7z"/>
	<path class="st4" d="M571.8,522.7c0-17.1-0.3-34.1,0.1-51.2c0.3-12.7,6.6-19.1,17.4-18.9c9.9,0.2,16.6,6.3,16.7,17.8
		c0.4,34.8,0.4,69.6,0,104.3c-0.1,11.9-8.2,19.7-17.7,19.4c-10-0.3-16.1-7.4-16.4-20.3C571.5,556.9,571.8,539.8,571.8,522.7z"/>
	<path class="st5" d="M583.9,405.9c9.4,0.3,16.8,8.3,16.7,18c-0.2,10.7-8.3,17.9-19.2,17c-9.6-0.8-16.7-8.9-16-18.4
		C566,413.7,575,405.6,583.9,405.9z"/>
</g>
</svg>
